<?xml version="1.0" standalone="no"?>
<!DOCTYPE svg PUBLIC "-//W3C//DTD SVG 20010904//EN"
 "http://www.w3.org/TR/2001/REC-SVG-20010904/DTD/svg10.dtd">
<svg version="1.0" xmlns="http://www.w3.org/2000/svg"
 width="333.000000pt" height="333.000000pt" viewBox="0 0 333.000000 333.000000"
 preserveAspectRatio="xMidYMid meet">
<metadata>
Created by potrace 1.11, written by Peter Selinger 2001-2013
</metadata>
<g transform="translate(0.000000,333.000000) scale(0.100000,-0.100000)"
fill="#000000" stroke="none">
<path d="M2177 3083 c-1 0 -15 -3 -32 -6 -42 -6 -94 -40 -135 -88 -19 -22 -47
-53 -62 -70 -16 -16 -28 -34 -28 -40 0 -13 -26 -40 -33 -33 -2 3 -4 -6 -3 -18
0 -14 -4 -22 -11 -20 -7 1 -13 -2 -13 -7 0 -16 -51 -71 -61 -66 -5 4 -6 -1 -2
-11 5 -14 3 -15 -15 -5 -27 15 -35 14 -29 -2 3 -8 -1 -14 -9 -14 -7 0 -11 4
-9 8 3 4 -2 10 -11 13 -10 4 -13 2 -8 -7 6 -9 4 -9 -8 1 -13 10 -18 10 -24 1
-5 -9 -11 -7 -20 6 -12 16 -14 17 -20 2 -3 -9 -10 -14 -15 -11 -5 3 -7 9 -5
13 3 4 -1 8 -9 8 -8 0 -11 -5 -8 -10 3 -5 0 -8 -8 -5 -8 3 -14 10 -14 15 0 6
-4 15 -9 20 -5 4 -6 3 -2 -4 3 -6 2 -14 -4 -18 -6 -4 -7 -12 -3 -18 3 -7 -3
-4 -15 6 -11 11 -25 16 -31 13 -5 -3 -12 0 -14 6 -3 8 -6 6 -6 -5 -1 -10 -5
-15 -11 -12 -5 3 -10 -1 -10 -9 0 -9 -4 -16 -10 -16 -5 0 -10 5 -10 10 0 10
-53 5 -72 -6 -4 -3 -8 -1 -8 3 0 11 -41 10 -59 -1 -7 -4 -10 -14 -7 -22 4 -10
0 -11 -21 -3 -20 8 -24 7 -20 -5 4 -11 -4 -9 -31 7 -30 17 -34 18 -23 4 18
-23 5 -35 -21 -18 -11 7 -17 8 -14 2 4 -5 -3 -15 -14 -21 -11 -6 -20 -7 -20
-3 0 4 -5 2 -12 -5 -16 -16 -28 -15 -28 3 0 16 -20 16 -32 0 -5 -6 -8 -3 -8 6
0 9 -7 19 -15 23 -8 3 -15 2 -15 -3 0 -4 -33 23 -72 61 -40 38 -100 87 -133
109 -33 23 -59 46 -57 51 1 5 -2 7 -7 4 -5 -3 -28 0 -52 7 -24 7 -64 12 -89
10 -25 -1 -53 -3 -63 -3 -9 -1 -15 -5 -12 -10 3 -4 1 -10 -5 -12 -6 -2 -12
-13 -15 -26 -2 -12 -7 -27 -10 -33 -13 -20 -6 -183 9 -207 4 -7 3 -12 -3 -12
-6 0 -8 -7 -5 -15 4 -8 11 -12 18 -8 8 4 8 2 -1 -7 -7 -8 -9 -20 -3 -35 5 -13
6 -26 3 -29 -4 -3 -1 -6 6 -6 7 0 9 -4 6 -10 -3 -5 -3 -10 2 -10 4 0 8 -20 8
-44 0 -24 3 -42 7 -40 5 3 8 2 9 -3 1 -17 8 -39 19 -68 6 -16 11 -32 10 -34
-1 -2 4 -7 11 -12 10 -5 10 -14 3 -31 -14 -30 -11 -117 5 -146 6 -12 8 -22 4
-21 -20 3 -27 -2 -13 -11 13 -8 13 -10 -2 -10 -9 0 -20 -5 -24 -12 -5 -7 -3
-8 6 -3 8 5 11 3 8 -6 -3 -8 -11 -13 -18 -11 -11 3 -11 0 0 -12 9 -12 9 -16 1
-16 -7 0 -9 -4 -6 -10 3 -5 0 -10 -7 -10 -9 0 -9 -3 -2 -8 8 -5 8 -15 -1 -35
-6 -15 -15 -24 -20 -20 -5 5 -4 1 3 -8 9 -12 9 -18 0 -27 -9 -9 -9 -12 2 -12
9 0 8 -5 -6 -15 -19 -15 -19 -15 1 -8 18 6 19 5 5 -12 -10 -13 -11 -16 -2 -11
11 6 13 -2 11 -38 -2 -25 1 -49 6 -53 4 -5 5 -2 0 6 -5 9 -4 12 3 7 7 -4 12
-14 12 -22 0 -8 -4 -13 -8 -10 -5 3 -9 -1 -9 -9 0 -8 5 -11 11 -8 6 4 5 -1 -3
-10 -9 -11 -10 -17 -2 -17 6 0 11 -5 11 -11 0 -5 -3 -8 -8 -5 -11 6 -9 -61 2
-71 5 -5 7 -1 3 10 -4 11 -3 16 3 12 17 -11 3 -68 -21 -86 l-24 -18 24 6 c21
5 23 3 19 -14 -3 -11 -1 -28 5 -38 6 -12 6 -16 -1 -11 -5 3 -13 -1 -16 -10 -3
-8 -2 -13 2 -11 10 7 27 -14 28 -35 1 -9 -4 -14 -11 -12 -7 3 -16 0 -21 -7 -4
-8 -3 -10 4 -5 7 4 20 2 29 -3 16 -9 15 -10 -7 -11 -19 0 -22 -2 -10 -9 8 -6
17 -8 20 -6 4 2 7 -2 7 -10 0 -8 -4 -12 -9 -9 -4 3 -8 1 -8 -5 0 -5 -3 -16 -6
-25 -3 -9 -1 -16 6 -16 6 0 9 4 5 9 -3 5 -1 12 3 15 15 9 7 -43 -8 -56 -12
-11 -12 -10 0 7 15 20 14 20 -8 1 -26 -23 -26 -20 -5 -37 9 -8 14 -9 11 -4 -4
6 2 11 13 11 17 0 18 -2 6 -11 -8 -5 -13 -18 -11 -27 1 -9 -4 -22 -12 -29 -17
-14 -19 -33 -1 -23 6 4 1 -4 -11 -18 -22 -24 -22 -27 -7 -36 13 -6 14 -11 6
-17 -9 -5 -9 -11 1 -23 10 -12 10 -14 1 -8 -9 5 -13 -1 -13 -22 0 -31 -21 -57
-35 -44 -5 4 -4 0 0 -8 11 -18 12 -51 1 -68 -4 -6 -4 -16 -1 -22 3 -5 -1 -10
-9 -10 -9 0 -16 -5 -16 -11 0 -5 4 -8 8 -5 4 2 8 -4 8 -14 0 -10 -4 -16 -8
-14 -4 3 -8 -2 -8 -11 0 -10 -5 -13 -13 -9 -8 5 -8 2 2 -9 9 -11 10 -17 2 -17
-6 0 -11 -5 -11 -11 0 -5 6 -7 12 -3 11 6 11 4 1 -7 -17 -17 -17 -32 -1 -23 9
5 9 2 -1 -9 -7 -9 -10 -17 -5 -17 5 0 2 -5 -6 -10 -12 -8 -12 -10 5 -10 17 0
17 -2 5 -10 -12 -8 -12 -10 -1 -10 9 0 4 -9 -13 -25 -27 -25 -35 -42 -14 -29
7 5 8 3 3 -6 -4 -7 -2 -16 6 -21 10 -7 5 -8 -13 -5 -15 3 -31 0 -34 -6 -4 -7
-2 -8 4 -4 7 4 12 2 12 -4 0 -6 -6 -13 -14 -16 -8 -3 -13 -14 -11 -24 2 -12
-1 -17 -9 -14 -8 3 -13 -2 -13 -13 0 -36 -3 -44 -14 -37 -8 4 -7 9 2 15 8 5 9
9 3 9 -6 0 -16 -6 -21 -12 -12 -15 -13 -49 -2 -42 4 2 11 -1 15 -8 4 -7 4 -10
-1 -6 -10 9 -45 -53 -37 -66 3 -5 0 -6 -5 -3 -6 4 -14 0 -17 -9 -3 -9 -12 -14
-19 -11 -8 3 -14 -4 -15 -19 -1 -18 3 -22 18 -19 12 2 18 0 15 -6 -4 -5 -11
-7 -16 -4 -5 4 -9 1 -9 -5 0 -6 -4 -8 -10 -5 -6 3 -7 -1 -4 -9 3 -9 1 -16 -5
-16 -6 0 -11 5 -11 12 0 6 -3 9 -6 6 -3 -4 0 -16 6 -28 7 -12 8 -20 2 -16 -14
9 -24 -24 -12 -39 9 -11 7 -12 -9 -8 -13 3 -21 1 -21 -6 0 -7 4 -10 8 -7 5 3
9 -1 9 -9 0 -8 -5 -11 -10 -8 -6 4 -8 -1 -4 -11 4 -10 3 -15 -3 -11 -6 3 -13
-1 -16 -10 -4 -9 -12 -14 -19 -11 -6 2 -18 0 -26 -5 -12 -8 -12 -10 1 -8 28 3
38 -1 44 -18 4 -10 4 -14 0 -10 -4 4 -13 2 -21 -5 -11 -9 -12 -7 -7 8 5 15 4
16 -4 4 -6 -8 -8 -18 -6 -22 3 -4 0 -8 -6 -8 -7 0 -6 -5 2 -15 11 -12 212 -14
1537 -12 l1524 2 3 28 c3 26 2 27 -14 9 -9 -10 -13 -12 -8 -5 6 9 3 18 -9 27
-14 10 -15 15 -5 21 9 6 11 4 5 -6 -7 -12 -6 -12 6 -1 17 16 19 34 4 45 -6 4
-5 10 3 16 11 7 11 9 -2 14 -9 4 -13 13 -10 22 3 8 1 15 -6 15 -6 0 -8 -4 -5
-10 3 -5 0 -7 -8 -4 -8 3 -13 17 -12 34 1 24 -1 28 -12 19 -9 -8 -13 -8 -13 0
0 6 -5 11 -11 11 -5 0 -7 -5 -3 -12 4 -7 3 -8 -5 -4 -6 4 -9 12 -6 17 4 5 0 9
-7 9 -9 0 -9 3 2 10 8 5 16 18 16 29 1 11 -3 18 -8 15 -4 -3 -6 -10 -3 -15 4
-5 1 -9 -4 -9 -15 0 -14 27 2 37 6 4 13 16 14 27 1 13 -2 15 -10 7 -14 -14
-30 -14 -21 0 4 8 -1 9 -17 4 -23 -7 -24 -7 -4 9 18 14 18 15 3 16 -10 0 -18
5 -18 10 0 6 3 9 8 9 19 -3 32 2 32 12 0 8 -5 8 -15 -1 -12 -10 -16 -9 -21 4
-4 11 -13 15 -22 11 -9 -3 -13 -3 -9 1 4 4 -1 13 -11 21 -12 9 -13 12 -2 8 8
-3 20 3 27 13 10 17 8 18 -12 14 -20 -3 -25 1 -32 24 -4 16 -8 31 -8 34 -1 12
-24 44 -25 34 0 -5 5 -15 12 -22 9 -9 9 -12 1 -12 -7 0 -15 10 -19 23 -4 12
-11 25 -16 28 -5 3 -10 15 -11 27 0 11 -4 20 -7 20 -3 0 -16 0 -29 1 -24 1
-24 1 -5 16 19 15 19 15 0 8 -15 -5 -18 -3 -14 9 5 11 0 14 -17 13 -28 -4 -65
36 -69 71 -2 14 -8 30 -14 36 -8 8 -8 17 -1 30 7 13 7 18 -2 16 -6 -2 -13 5
-14 15 -2 9 1 15 6 11 5 -3 9 0 9 5 0 6 -6 11 -12 11 -9 0 -8 4 2 10 8 5 10
10 3 10 -6 0 -9 9 -6 20 3 13 0 20 -8 20 -11 0 -11 2 1 10 11 7 11 10 2 10 -7
0 -11 4 -7 9 3 5 -3 12 -14 16 -14 4 -18 14 -17 35 1 16 -1 27 -5 24 -4 -2
-10 0 -14 6 -3 5 2 10 12 10 17 1 17 1 0 11 -14 8 -15 14 -6 31 9 16 8 19 -2
13 -9 -6 -11 -3 -6 8 4 10 2 17 -4 17 -6 0 -9 6 -6 14 3 8 1 16 -5 18 -5 2
-11 18 -11 35 -1 17 -5 29 -9 27 -5 -3 -8 4 -8 16 0 13 -4 19 -11 14 -8 -4 -9
0 -4 15 3 12 3 21 -2 20 -18 -3 -36 1 -30 7 3 4 -1 13 -9 21 -8 8 -12 19 -9
23 3 5 -3 7 -13 5 -15 -3 -18 2 -16 21 1 13 -2 24 -7 24 -6 0 -8 3 -6 8 7 10
-19 32 -29 24 -5 -4 -3 0 4 9 8 11 8 19 1 26 -8 8 -8 13 0 17 6 4 11 12 11 17
0 6 -5 7 -11 3 -8 -4 -8 0 0 15 8 14 8 21 1 21 -5 0 -10 5 -10 11 0 5 6 7 13
3 6 -4 4 2 -6 13 -9 11 -14 23 -10 26 3 4 1 7 -5 7 -7 0 -12 5 -12 11 0 8 5 8
15 -1 18 -15 19 -7 4 22 -7 13 -7 18 -1 14 6 -3 14 -1 18 5 4 7 3 10 -2 6 -5
-3 -14 6 -21 19 -8 18 -8 22 0 17 9 -5 9 -3 0 8 -15 18 -25 72 -13 64 10 -6 5
40 -10 86 -5 17 -4 31 3 39 9 9 9 11 1 7 -8 -5 -11 6 -10 32 0 22 4 37 8 35 4
-3 6 18 5 45 -1 27 -4 48 -7 46 -3 -2 -5 12 -5 31 1 19 -1 32 -3 29 -3 -3 -11
0 -19 6 -17 15 -18 43 0 33 8 -5 8 -2 -2 9 -7 9 -20 17 -28 17 -8 0 -11 5 -8
10 3 6 2 10 -3 10 -5 0 -12 14 -16 31 -3 17 -10 28 -14 25 -11 -7 -33 38 -38
79 -3 17 -12 53 -21 80 -12 37 -16 100 -18 250 -1 110 -3 200 -4 200 -3 0 -7
18 -15 69 -4 22 -10 44 -14 50 -5 6 -8 18 -7 26 1 8 -7 27 -17 41 -9 14 -14
30 -10 35 4 4 -2 2 -12 -6 -11 -8 -17 -10 -13 -4 4 7 -4 11 -24 10 -17 -1 -31
-2 -32 -3z m1027 -2944 c-3 -5 -10 -7 -15 -3 -5 3 -7 10 -3 15 3 5 10 7 15 3
5 -3 7 -10 3 -15z m10 -35 c3 -8 2 -12 -4 -9 -6 3 -10 10 -10 16 0 14 7 11 14
-7z"/>
<path d="M1146 2658 c3 -5 10 -6 15 -3 13 9 11 12 -6 12 -8 0 -12 -4 -9 -9z"/>
<path d="M575 1570 c3 -5 8 -10 11 -10 2 0 4 5 4 10 0 6 -5 10 -11 10 -5 0 -7
-4 -4 -10z"/>
<path d="M585 1190 c-3 -5 -3 -10 2 -10 4 0 1 -5 -7 -11 -12 -8 -12 -10 -1 -7
8 2 15 12 17 21 3 19 -2 22 -11 7z"/>
<path d="M2827 729 c7 -7 15 -10 18 -7 3 3 -2 9 -12 12 -14 6 -15 5 -6 -5z"/>
<path d="M3020 511 c0 -6 4 -13 10 -16 6 -3 7 1 4 9 -7 18 -14 21 -14 7z"/>
<path d="M346 406 c5 -12 4 -17 -3 -13 -5 3 -10 -1 -10 -9 0 -13 2 -13 16 0
12 13 13 18 2 28 -10 11 -11 9 -5 -6z"/>
</g>
</svg>
